<?xml version="1.0" encoding="utf-8"?>
<svg xmlns="http://www.w3.org/2000/svg"
	xmlns:xlink="http://www.w3.org/1999/xlink"
	width="111px" height="97px">
<path fill="rgb(229,229,231)" fill-rule="evenodd" d="M110.01 51.55 C109.27 73.00 91.26 89.79 69.80 89.04 C69.38 89.03 68.97 88.98 68.55 88.95 C68.55 88.95 73.00 83.46 73.00 83.46 C90.04 82.53 103.86 68.73 104.46 51.36 C104.87 39.57 99.10 29.01 90.07 22.77 C90.07 22.77 90.29 21.97 90.29 21.97 C90.29 21.97 92.25 17.54 92.25 17.54 C103.35 24.72 110.51 37.38 110.01 51.55 Z M102.59 44.08 C102.59 44.08 50.60 97.01 50.60 97.01 C50.60 97.01 67.58 56.31 67.58 56.31 C67.58 56.31 42.64 55.44 42.64 55.44 C42.64 55.44 88.37 2.29 88.37 2.29 C88.37 2.29 74.77 43.11 74.77 43.11 C74.77 43.11 102.59 44.08 102.59 44.08 Z M37.85 49.04 C37.42 61.43 43.83 72.47 53.68 78.56 C53.68 78.56 45.69 85.98 45.69 85.98 C37.59 92.44 29.45 96.28 29.45 96.28 C29.45 96.28 36.73 85.01 41.22 74.98 C35.86 68.51 32.57 60.30 32.31 51.37 C28.41 56.48 22.15 62.30 17.45 69.41 C9.79 80.99 20.35 95.96 20.35 95.96 C20.35 95.96 3.96 89.32 0.46 72.13 C-3.03 54.94 13.97 41.59 22.20 29.80 C30.44 18.01 23.24 0.01 23.24 0.01 C23.24 0.01 33.27 10.41 43.08 23.32 C49.85 16.25 59.26 11.76 69.65 11.37 C69.65 11.37 66.91 17.15 66.91 17.15 C50.99 19.18 38.43 32.48 37.85 49.04 Z"/>
</svg>