<?xml version="1.0" encoding="utf-8"?>
<svg xmlns="http://www.w3.org/2000/svg"
	xmlns:xlink="http://www.w3.org/1999/xlink"
	width="84px" height="100px">
<path opacity="0.10" fill="rgb(0,0,0)" fill-rule="evenodd" d="M42.00 93.41 C40.98 93.41 39.97 93.36 38.96 93.29 C38.96 93.29 43.42 87.31 43.42 87.31 C62.64 86.55 78.00 70.56 78.00 50.94 C78.00 37.83 71.14 26.35 60.86 19.94 C60.86 19.94 63.12 14.24 63.12 14.24 C75.61 21.60 84.00 35.28 84.00 50.94 C84.00 74.40 65.20 93.41 42.00 93.41 Z M74.67 43.33 C74.67 43.33 22.79 100.00 22.79 100.00 C22.79 100.00 39.00 56.67 39.00 56.67 C39.00 56.67 13.07 56.67 13.07 56.67 C13.07 56.67 58.46 -0.00 58.46 -0.00 C58.46 -0.00 45.49 43.33 45.49 43.33 C45.49 43.33 74.67 43.33 74.67 43.33 Z M6.00 50.94 C6.00 63.62 12.41 74.77 22.12 81.29 C22.12 81.29 18.50 86.15 18.50 86.15 C7.34 78.51 -0.00 65.59 -0.00 50.94 C-0.00 28.26 17.59 9.74 39.73 8.54 C39.73 8.54 37.02 14.90 37.02 14.90 C19.50 17.35 6.00 32.55 6.00 50.94 Z"/>
</svg>